<svg xmlns="http://www.w3.org/2000/svg" viewBox="0 0 32 32">
  <rect width="32" height="32" rx="4" fill="#1a5fa8"/>
  <!-- Red star (left) -->
  <polygon fill="#d42027"
    points="8,3 9.3,7.5 14,7.6 10.5,10.3 11.7,14.8 8,12.2 4.3,14.8 5.5,10.3 2,7.6 6.7,7.5"/>
  <!-- Blue/white star (center, slightly taller) -->
  <polygon fill="white"
    points="16,1 17.5,6.2 22.8,6.3 18.8,9.5 20.2,14.6 16,11.8 11.8,14.6 13.2,9.5 9.2,6.3 14.5,6.2"/>
  <!-- Green star (right) -->
  <polygon fill="#2d8a3e"
    points="24,3 25.3,7.5 30,7.6 26.5,10.3 27.7,14.8 24,12.2 20.3,14.8 21.5,10.3 18,7.6 22.7,7.5"/>
  <!-- White bar (T stem) -->
  <rect x="14" y="15" width="4" height="15" fill="white"/>
</svg>
