<?xml version="1.0" encoding="utf-8"?>
<!-- Generator: Adobe Illustrator 25.3.0, SVG Export Plug-In . SVG Version: 6.00 Build 0)  -->
<svg version="1.1" id="Livello_1" xmlns="http://www.w3.org/2000/svg" xmlns:xlink="http://www.w3.org/1999/xlink" x="0px" y="0px"
	 viewBox="0 0 841.9 595.3" style="enable-background:new 0 0 841.9 595.3;" xml:space="preserve">
<style type="text/css">
	.st0{fill:#E10E34;}
	.st1{fill:#009660;}
	.st2{fill:#0058A2;}
</style>
<g>
	<g>
		<g>
			<g>
				<path class="st0" d="M188.1,251.1c-1,0.7-1.9,1-2.8,1h0c-1.3,0-2.5-0.6-3.2-1.7c-0.6-0.9-1-2.3-0.1-4.4l6-13.4l-9.2-7.8
					c-0.2-0.2-0.3-0.3-0.5-0.5l-7.4,52.6c-0.4,2.8,1.8,5.4,4.7,5.4h16.2l5.2-37.3L188.1,251.1z"/>
				<path class="st0" d="M214.2,233.2c0,0.1-0.1,0.2-0.1,0.3l2.3,13.2c0.3,1.9-0.3,3.2-0.9,3.9c-0.7,0.9-1.8,1.4-3,1.4h0
					c-1.1,0-2.2-0.4-3.1-1.3l-7.9-6.7l-5.4,38.3h21.6l8-56.9L214.2,233.2z"/>
			</g>
			<path class="st0" d="M204.4,204.9c0.5-1.2,1.1-1.1,1.3,0.2l2.3,13.3c0.2,1.3,1.4,2.3,2.7,2.3h13.4c1.3,0,1.5,0.6,0.4,1.3
				l-12.3,8.4c-1,0.7-1.7,2.3-1.5,3.6l2.3,13.3c0.2,1.3-0.4,1.6-1.4,0.8l-9.5-8c-1-0.8-2.6-0.9-3.7-0.2l-12.3,8.4
				c-1,0.7-1.5,0.4-1-0.8l6.2-13.6c0.5-1.2,0.2-2.8-0.8-3.6l-9.5-8c-1-0.8-0.7-1.5,0.5-1.5H195c1.3,0,2.7-0.9,3.3-2.1L204.4,204.9z"
				/>
			<g>
				<path class="st1" d="M291.4,251.1c-1,0.7-1.9,1-2.8,1h0c-1.3,0-2.5-0.6-3.2-1.7c-0.6-0.9-1-2.3-0.1-4.4l6-13.4l-9.2-7.8
					c-0.2-0.2-0.3-0.3-0.5-0.5l-8.2,58H295l5.2-37.3L291.4,251.1z"/>
				<path class="st1" d="M317.5,233.2c0,0.1-0.1,0.2-0.1,0.3l2.3,13.2c0.3,1.9-0.3,3.2-0.9,3.9c-0.7,0.9-1.8,1.4-3,1.4h0
					c-1.1,0-2.2-0.4-3.1-1.3l-7.9-6.7l-5.4,38.3h17.6c2.3,0,4.3-1.7,4.6-4l7.4-52.9L317.5,233.2z"/>
			</g>
			<path class="st1" d="M307.7,204.9c0.5-1.2,1.1-1.1,1.3,0.2l2.3,13.3c0.2,1.3,1.4,2.3,2.7,2.3h13.4c1.3,0,1.5,0.6,0.4,1.3
				l-12.3,8.4c-1,0.7-1.7,2.3-1.5,3.6l2.3,13.3c0.2,1.3-0.4,1.6-1.4,0.8l-9.5-8c-1-0.8-2.6-0.9-3.7-0.2l-12.3,8.4
				c-1,0.7-1.5,0.4-1-0.8l6.2-13.6c0.5-1.2,0.2-2.8-0.8-3.6l-9.5-8c-1-0.8-0.7-1.5,0.5-1.5h13.4c1.3,0,2.7-0.9,3.3-2.1L307.7,204.9z
				"/>
			<g>
				<path class="st2" d="M239.5,251.1c-1,0.7-1.9,1-2.8,1c0,0,0,0,0,0c-1.3,0-2.5-0.6-3.2-1.7c-0.5-0.9-1-2.3-0.1-4.4l6-13.4
					l-9.2-7.9c0,0-0.1-0.1-0.1-0.1l-22.7,161.2c-0.4,2.8,1.8,5.4,4.6,5.4l16.2,0l20.7-146.6L239.5,251.1z"/>
				<path class="st2" d="M265.6,233.2c0,0.1-0.1,0.2-0.1,0.3l2.3,13.2c0.3,1.9-0.3,3.2-0.9,3.9c-0.7,0.9-1.8,1.4-3,1.4c0,0,0,0,0,0
					c-1.1,0-2.1-0.4-3.1-1.3l-7.5-6.4l-20.7,147l17.6,0c2.3,0,4.3-1.7,4.6-4l22.9-162.2L265.6,233.2z"/>
			</g>
			<path class="st2" d="M255.8,204.9c0.5-1.2,1.1-1.1,1.3,0.2l2.3,13.3c0.2,1.3,1.4,2.3,2.7,2.3l13.4,0c1.3,0,1.5,0.6,0.4,1.3
				l-12.3,8.4c-1,0.7-1.7,2.3-1.5,3.6l2.3,13.3c0.2,1.3-0.4,1.6-1.4,0.8l-9.5-8c-1-0.8-2.6-0.9-3.7-0.2l-12.3,8.4
				c-1,0.7-1.5,0.4-1-0.8l6.2-13.6c0.5-1.2,0.2-2.8-0.8-3.6l-9.5-8c-1-0.8-0.7-1.5,0.5-1.5l13.4,0c1.3,0,2.7-0.9,3.3-2.1
				L255.8,204.9z"/>
		</g>
		<g>
			<path class="st2" d="M275.8,354.3l3.7-26c2.7-19.1,11.2-26.7,30.8-26.7c19.3,0,23.7,9,21.3,26.6l-2.4,17.1c-0.2,1.7-1.7,3-3.5,3
				h-30.1l-0.8,5.9c-1,7.5-0.2,11.1,6.3,11.1c5.1,0,6.4-1.4,7.7-6.7c0.4-1.6,1.9-2.7,3.6-2.4l10.8,1.6c1.9,0.3,3.2,2.2,2.6,4.1
				c-3.3,11.3-8.5,18.7-26.5,18.7C280,380.5,273.4,371.6,275.8,354.3z M297.7,332.9h14.6l0.7-4.7c1-7.5,1-10.6-5.6-10.6
				c-6.4,0-7.9,3.1-9,10.8L297.7,332.9z"/>
			<path class="st2" d="M352.6,268.5h12.8c1.9,0,3.4,1.7,3.2,3.7L353.9,377c-0.2,1.6-1.6,2.8-3.2,2.8h-12.8c-1.9,0-3.4-1.7-3.2-3.7
				l14.7-104.9C349.7,269.7,351,268.5,352.6,268.5z"/>
			<path class="st2" d="M367.3,354.3l3.7-26c2.7-19.1,11.2-26.7,30.8-26.7c19.3,0,23.7,9,21.3,26.6l-2.4,17.4
				c-0.2,1.6-1.6,2.8-3.2,2.8h-30.4l-0.8,5.9c-1,7.5-0.2,11.1,6.3,11.1c5.1,0,6.4-1.4,7.6-6.7c0.4-1.6,1.9-2.7,3.6-2.4l10.8,1.6
				c1.9,0.3,3.2,2.2,2.6,4.1c-3.3,11.2-8.5,18.7-26.5,18.7C371.4,380.5,364.9,371.6,367.3,354.3z M389.2,332.9h14.6l0.7-4.7
				c1-7.5,1-10.6-5.6-10.6c-6.4,0-7.9,3.1-9,10.8L389.2,332.9z"/>
			<path class="st2" d="M435.7,302.7h5.5l2.8-20.3c0.2-1.5,1.5-2.7,3.1-2.7h13c1.9,0,3.3,1.7,3.1,3.5l-2.7,19.4h6.2
				c1.9,0,3.3,1.7,3.1,3.5l-1.6,11.2c-0.2,1.5-1.5,2.7-3.1,2.7h-7l-5.1,36.5c-0.8,5.4,0,6.2,5,6.2h0.3c1.9,0,3.3,1.7,3.1,3.5
				l-1.5,10.8c-0.2,1.5-1.5,2.7-3.1,2.7h-6.9c-13.5,0-18.8-4.9-16.9-18.4l5.8-41.3h-4.6c-1.9,0-3.3-1.7-3.1-3.5l1.6-11.2
				C432.9,303.9,434.2,302.7,435.7,302.7z"/>
			<path class="st2" d="M487.8,268.5h12.9c1.9,0,3.4,1.7,3.1,3.6l-5.1,36c4.4-3.8,9.8-6.6,17.4-6.6c15.6,0,16.3,7.8,14.3,22
				l-7.5,53.5c-0.2,1.6-1.5,2.7-3.1,2.7h-12.9c-1.9,0-3.4-1.7-3.1-3.6l6.9-49.4c0.9-6.1,0-8.3-5.3-8.3c-5.9,0-8.3,1-9.6,10.6
				l-6.7,48c-0.2,1.6-1.5,2.7-3.1,2.7h-12.9c-1.9,0-3.4-1.7-3.1-3.6l14.8-105C484.9,269.7,486.2,268.5,487.8,268.5z"/>
			<path class="st2" d="M535.7,354.3l3.7-26c2.5-17.5,10-26.7,30.5-26.7c20.7,0,25.5,9,23,26.2l-3.7,26.2
				c-2.4,16.8-11.4,26.6-30.5,26.6C539.6,380.5,533.3,370.9,535.7,354.3z M569.7,354.1l3.6-25.9c1.1-8.2-0.5-9.7-5.9-9.7
				c-5.2,0-7.5,1.7-8.7,9.9l-3.6,25.7c-1.1,7.8,1.1,9.7,5.9,9.7S568.6,361.9,569.7,354.1z"/>
			<path class="st2" d="M609.2,302.7h12.9c1.9,0,3.4,1.7,3.1,3.6l-0.3,1.8c4.4-3.8,10.1-6.6,17.4-6.6c15.6,0,16.3,7.8,14.3,22
				l-7.5,53.5c-0.2,1.6-1.6,2.7-3.1,2.7h-12.9c-1.9,0-3.4-1.7-3.1-3.6l6.9-49.3c0.9-6.1,0-8.3-5.3-8.3c-5.9,0-8.3,1-9.6,10.6
				l-6.7,48c-0.2,1.6-1.6,2.7-3.1,2.7h-12.9c-1.9,0-3.4-1.7-3.1-3.6l9.9-70.8C606.3,303.9,607.6,302.7,609.2,302.7z"/>
		</g>
	</g>
	<g>
		<path class="st2" d="M357.5,220.5h16.4c0.5,0,0.8,0.4,0.8,0.9l-0.4,3.1c-0.1,0.4-0.4,0.7-0.8,0.7h-12l-0.8,5.6h10.5
			c0.5,0,0.8,0.4,0.8,0.9l-0.4,3.1c-0.1,0.4-0.4,0.7-0.8,0.7h-10.7l-1.5,10.8c-0.1,0.4-0.4,0.7-0.8,0.7H354c-0.5,0-0.8-0.4-0.8-0.9
			l3.5-24.9C356.8,220.8,357.1,220.5,357.5,220.5z"/>
		<path class="st2" d="M384.8,234.5l0.2-1.5c1-6.9,4.1-12.7,13.2-12.7c9.2,0,10.7,5.7,9.7,12.6l-0.2,1.6
			c-0.9,6.4-4.5,12.7-13.3,12.7C385.8,247.2,383.9,241.4,384.8,234.5z M402.3,234.6l0.2-1.7c0.8-5.6-0.6-7.9-5-7.9
			c-4.3,0-6.4,2.4-7.2,8l-0.2,1.6c-0.8,5.5,1,8,4.9,8C399.1,242.6,401.6,240.1,402.3,234.6z"/>
		<path class="st2" d="M424.4,220.5h5.2c0.3,0,0.6,0.2,0.7,0.5l6.6,16l2.2-15.8c0.1-0.4,0.4-0.7,0.8-0.7h3.5c0.5,0,0.9,0.4,0.8,0.9
			l-3.5,24.9c-0.1,0.4-0.4,0.7-0.8,0.7h-4c-0.3,0-0.6-0.2-0.8-0.5l-7.5-18.1l-2.5,17.9c-0.1,0.4-0.4,0.7-0.8,0.7h-3.5
			c-0.5,0-0.9-0.4-0.8-0.9l3.5-24.9C423.7,220.8,424,220.5,424.4,220.5z"/>
		<path class="st2" d="M459.6,221.1c0.1-0.4,0.4-0.7,0.8-0.7h8.5c9.3,0,10.8,5.1,9.7,12.4l-0.2,1.7c-1,7.2-4.7,12.5-13.2,12.5h-8.3
			c-0.5,0-0.8-0.4-0.8-0.9L459.6,221.1z M465.8,242.5c5,0,6.5-3.1,7.2-8l0.2-1.6c0.8-5.6-0.4-7.9-5-7.9h-3.9l-2.5,17.5H465.8z"/>
		<path class="st2" d="M500.8,220.3h4.3c0.4,0,0.7,0.3,0.8,0.6l5,25.2c0.1,0.5-0.3,0.9-0.8,0.9h-3.8c-0.4,0-0.7-0.3-0.8-0.6
			l-0.9-4.7h-9.2l-2.3,4.9c-0.1,0.3-0.4,0.4-0.7,0.4h-3.5c-0.6,0-0.9-0.6-0.7-1.1l12-25.2C500.3,220.4,500.5,220.3,500.8,220.3z
			 M497.4,237.4h6.3l-1.9-9.4L497.4,237.4z"/>
		<path class="st2" d="M524.1,242.7l14.6-17.5h-11.2c-0.5,0-0.8-0.4-0.8-0.9l0.4-3.1c0.1-0.4,0.4-0.7,0.8-0.7h17.3
			c0.5,0,0.8,0.4,0.8,0.9l-0.4,2.9c0,0.2-0.1,0.4-0.3,0.6l-14.6,17.5h11.6c0.5,0,0.8,0.4,0.8,0.9l-0.4,3.1c-0.1,0.4-0.4,0.7-0.8,0.7
			h-17.7c-0.5,0-0.8-0.4-0.8-0.9l0.4-2.9C523.9,243,524,242.8,524.1,242.7z"/>
		<path class="st2" d="M561.4,220.5h3.8c0.5,0,0.8,0.4,0.8,0.9l-3.5,25c-0.1,0.4-0.4,0.7-0.8,0.7h-3.8c-0.5,0-0.8-0.4-0.8-0.9
			l3.5-25C560.7,220.8,561.1,220.5,561.4,220.5z"/>
		<path class="st2" d="M578.2,234.5l0.2-1.5c1-6.9,4.1-12.7,13.2-12.7c9.2,0,10.7,5.7,9.7,12.6l-0.2,1.6
			c-0.9,6.4-4.5,12.7-13.3,12.7C579.2,247.2,577.2,241.4,578.2,234.5z M595.7,234.6l0.2-1.7c0.8-5.6-0.6-7.9-5-7.9
			c-4.3,0-6.4,2.4-7.2,8l-0.2,1.6c-0.8,5.5,1,8,4.9,8C592.5,242.6,595,240.1,595.7,234.6z"/>
		<path class="st2" d="M617.8,220.5h5.2c0.3,0,0.6,0.2,0.7,0.5l6.6,16l2.2-15.8c0.1-0.4,0.4-0.7,0.8-0.7h3.6c0.5,0,0.9,0.4,0.8,0.9
			l-3.5,24.9c-0.1,0.4-0.4,0.7-0.8,0.7h-4c-0.3,0-0.6-0.2-0.7-0.5l-7.5-18.1l-2.5,17.9c-0.1,0.4-0.4,0.7-0.8,0.7h-3.5
			c-0.5,0-0.9-0.4-0.8-0.9l3.5-24.9C617,220.8,617.4,220.5,617.8,220.5z"/>
		<path class="st2" d="M653.7,220.5h16.4c0.5,0,0.8,0.4,0.8,0.9l-0.4,3.1c-0.1,0.4-0.4,0.7-0.8,0.7h-12l-0.7,5.1h10.5
			c0.5,0,0.8,0.4,0.8,0.9l-0.4,3c-0.1,0.4-0.4,0.7-0.8,0.7h-10.7l-1,7.4h11.8c0.5,0,0.8,0.4,0.8,0.9l-0.4,3.1
			c-0.1,0.4-0.4,0.7-0.8,0.7h-16.4c-0.5,0-0.8-0.4-0.8-0.9l3.5-24.9C653,220.8,653.3,220.5,653.7,220.5z"/>
	</g>
</g>
</svg>
